<svg width="16" height="16" viewBox="0 0 16 16" fill="none" xmlns="http://www.w3.org/2000/svg">
<g id="Info">
<g id="Group 3907">
<circle id="Ellipse 272" cx="8" cy="8" r="7" fill="#334B6F"/>
<path id="i" d="M7.41571 11.4965L7.35156 7.44531H8.60242L8.66657 11.4965H7.41571Z" fill="#C6D7EF"/>
<path id="i_2" d="M7.43524 5.82529C7.57957 5.97353 7.76667 6.04765 7.99653 6.04765C8.23173 6.04765 8.41883 5.97353 8.55781 5.82529C8.70214 5.67111 8.77431 5.4784 8.77431 5.24714C8.77431 5.02774 8.70214 4.84985 8.55781 4.71347C8.41348 4.57116 8.22639 4.5 7.99653 4.5C7.76667 4.5 7.57957 4.57412 7.43524 4.72236C7.29091 4.87061 7.21875 5.05443 7.21875 5.27382C7.21875 5.49322 7.29091 5.67704 7.43524 5.82529Z" fill="#C6D7EF"/>
</g>
</g>
</svg>
