<svg width="34" height="34" viewBox="0 0 34 34" fill="none" xmlns="http://www.w3.org/2000/svg">
<circle cx="17" cy="17" r="17" fill="#FF8157" fill-opacity="0.2"/>
<path d="M14.5875 12.6613L18.2749 16.3855L7.80958 16.3838L7.80954 16.3838C7.59145 16.3838 7.40858 16.4988 7.28622 16.6439C7.16409 16.7887 7.08572 16.9816 7.08572 17.1765C7.08572 17.3714 7.16417 17.5643 7.28631 17.7091C7.40867 17.8542 7.59153 17.9692 7.80954 17.9692L7.80958 17.9692L18.2806 17.9675L14.5868 21.6925C14.3334 21.9442 14.2225 22.4027 14.5319 22.7092C14.8143 22.989 15.2714 22.9888 15.554 22.7092L15.554 22.7092L20.5276 17.7843L20.5276 17.7843C20.6842 17.6292 20.7403 17.3836 20.7403 17.1765C20.7402 16.9695 20.684 16.7241 20.5277 16.5691L20.5276 16.5689L15.554 11.644L15.554 11.644C15.2714 11.3644 14.8143 11.3642 14.5319 11.6441C14.2225 11.9507 14.3334 12.4088 14.5868 12.6606C14.587 12.6608 14.5872 12.6611 14.5875 12.6613Z" fill="#FF8157" stroke="#FF8157" stroke-width="0.4"/>
<path d="M25.6878 25.7577V8.79314C25.6878 8.39452 25.3617 8.07466 24.964 8.07466H21.2618C20.8769 8.07466 20.538 8.35729 20.538 8.76841C20.538 9.17954 20.8769 9.46217 21.2618 9.46217H24.3025L24.3025 25.0887H21.2618C20.8772 25.0887 20.538 25.3713 20.538 25.7824C20.538 26.1935 20.8769 26.4762 21.2618 26.4762H24.964C25.3617 26.4762 25.6878 26.1563 25.6878 25.7577Z" fill="#FF8157" stroke="#FF8157" stroke-width="0.4"/>
</svg>
