<svg width="19" height="18" viewBox="0 0 19 18" fill="none" xmlns="http://www.w3.org/2000/svg">
<path d="M17.7507 1L10.8666 6.09379L12.1467 3.09186L17.7507 1Z" fill="#E17726" stroke="#E17726" stroke-width="0.25" stroke-linecap="round" stroke-linejoin="round"/>
<path d="M1.87152 1L8.69439 6.14133L7.47555 3.09185L1.87152 1Z" fill="#E27625" stroke="#E27625" stroke-width="0.25" stroke-linecap="round" stroke-linejoin="round"/>
<path d="M15.272 12.8108L13.4403 15.609L17.3624 16.6889L18.486 12.872L15.272 12.8108Z" fill="#E27625" stroke="#E27625" stroke-width="0.25" stroke-linecap="round" stroke-linejoin="round"/>
<path d="M1.14288 12.872L2.25959 16.6889L6.17493 15.609L4.35003 12.8108L1.14288 12.872Z" fill="#E27625" stroke="#E27625" stroke-width="0.25" stroke-linecap="round" stroke-linejoin="round"/>
<path d="M5.96385 8.08382L4.87439 9.72743L8.75565 9.90402L8.62629 5.72711L5.96385 8.08382Z" fill="#E27625" stroke="#E27625" stroke-width="0.25" stroke-linecap="round" stroke-linejoin="round"/>
<path d="M13.6583 8.08383L10.955 5.67957L10.8665 9.90402L14.7478 9.72744L13.6583 8.08383Z" fill="#E27625" stroke="#E27625" stroke-width="0.25" stroke-linecap="round" stroke-linejoin="round"/>
<path d="M6.17499 15.609L8.52415 14.4748L6.50184 12.8991L6.17499 15.609Z" fill="#E27625" stroke="#E27625" stroke-width="0.25" stroke-linecap="round" stroke-linejoin="round"/>
<path d="M11.0981 14.4748L13.4405 15.609L13.1205 12.8991L11.0981 14.4748Z" fill="#E27625" stroke="#E27625" stroke-width="0.25" stroke-linecap="round" stroke-linejoin="round"/>
<path d="M13.4405 15.609L11.0981 14.4749L11.2888 15.9962L11.2683 16.6414L13.4405 15.609Z" fill="#D5BFB2" stroke="#D5BFB2" stroke-width="0.25" stroke-linecap="round" stroke-linejoin="round"/>
<path d="M6.17499 15.609L8.35396 16.6414L8.34033 15.9962L8.52415 14.4749L6.17499 15.609Z" fill="#D5BFB2" stroke="#D5BFB2" stroke-width="0.25" stroke-linecap="round" stroke-linejoin="round"/>
<path d="M8.39479 11.894L6.44733 11.3235L7.82279 10.6918L8.39479 11.894Z" fill="#233447" stroke="#233447" stroke-width="0.25" stroke-linecap="round" stroke-linejoin="round"/>
<path d="M11.2275 11.894L11.7995 10.6918L13.1818 11.3235L11.2275 11.894Z" fill="#233447" stroke="#233447" stroke-width="0.25" stroke-linecap="round" stroke-linejoin="round"/>
<path d="M6.17496 15.609L6.51544 12.8108L4.3501 12.872L6.17496 15.609Z" fill="#CC6228" stroke="#CC6228" stroke-width="0.25" stroke-linecap="round" stroke-linejoin="round"/>
<path d="M13.1068 12.8108L13.4404 15.609L15.2721 12.872L13.1068 12.8108Z" fill="#CC6228" stroke="#CC6228" stroke-width="0.25" stroke-linecap="round" stroke-linejoin="round"/>
<path d="M14.7478 9.72733L10.8665 9.90391L11.2274 11.8939L11.7994 10.6918L13.1817 11.3234L14.7478 9.72733Z" fill="#CC6228" stroke="#CC6228" stroke-width="0.25" stroke-linecap="round" stroke-linejoin="round"/>
<path d="M6.44732 11.3234L7.82278 10.6918L8.39478 11.8939L8.75565 9.90391L4.87439 9.72733L6.44732 11.3234Z" fill="#CC6228" stroke="#CC6228" stroke-width="0.25" stroke-linecap="round" stroke-linejoin="round"/>
<path d="M4.87445 9.72733L6.50187 12.8991L6.44736 11.3234L4.87445 9.72733Z" fill="#E27525" stroke="#E27525" stroke-width="0.25" stroke-linecap="round" stroke-linejoin="round"/>
<path d="M13.1817 11.3234L13.1204 12.8991L14.7478 9.72733L13.1817 11.3234Z" fill="#E27525" stroke="#E27525" stroke-width="0.25" stroke-linecap="round" stroke-linejoin="round"/>
<path d="M8.75595 9.90393L8.39502 11.894L8.85124 14.2438L8.95339 11.1468L8.75595 9.90393Z" fill="#E27525" stroke="#E27525" stroke-width="0.25" stroke-linecap="round" stroke-linejoin="round"/>
<path d="M10.8665 9.90393L10.6758 11.1401L10.7712 14.2438L11.2274 11.894L10.8665 9.90393Z" fill="#E27525" stroke="#E27525" stroke-width="0.25" stroke-linecap="round" stroke-linejoin="round"/>
<path d="M11.2275 11.894L10.7712 14.2439L11.0981 14.4748L13.1205 12.8991L13.1817 11.3235L11.2275 11.894Z" fill="#F5841F" stroke="#F5841F" stroke-width="0.25" stroke-linecap="round" stroke-linejoin="round"/>
<path d="M6.44733 11.3235L6.50184 12.8991L8.52414 14.4748L8.851 14.2439L8.39479 11.894L6.44733 11.3235Z" fill="#F5841F" stroke="#F5841F" stroke-width="0.25" stroke-linecap="round" stroke-linejoin="round"/>
<path d="M11.2683 16.6414L11.2887 15.9961L11.1117 15.8467H8.51058L8.34033 15.9961L8.35396 16.6414L6.17499 15.609L6.93762 16.2338L8.48332 17.3002H11.1321L12.6846 16.2338L13.4404 15.609L11.2683 16.6414Z" fill="#C0AC9D" stroke="#C0AC9D" stroke-width="0.25" stroke-linecap="round" stroke-linejoin="round"/>
<path d="M11.0981 14.4748L10.7712 14.2439H8.85101L8.5242 14.4748L8.34033 15.9961L8.51057 15.8467H11.1117L11.2887 15.9961L11.0981 14.4748Z" fill="#161616" stroke="#161616" stroke-width="0.25" stroke-linecap="round" stroke-linejoin="round"/>
<path d="M18.0435 6.42657L18.6223 3.61481L17.7507 1L11.0981 5.92402L13.6584 8.08376L17.2741 9.1365L18.0708 8.20604L17.7235 7.95471L18.275 7.45216L17.8529 7.12615L18.4045 6.70505L18.0435 6.42657Z" fill="#763E1A" stroke="#763E1A" stroke-width="0.25" stroke-linecap="round" stroke-linejoin="round"/>
<path d="M1 3.61481L1.5856 6.42657L1.21109 6.70505L1.76944 7.12615L1.34727 7.45216L1.89882 7.95471L1.55155 8.20604L2.34823 9.1365L5.96396 8.08376L8.5242 5.92402L1.87158 1L1 3.61481Z" fill="#763E1A" stroke="#763E1A" stroke-width="0.25" stroke-linecap="round" stroke-linejoin="round"/>
<path d="M17.2741 9.13652L13.6584 8.08383L14.7478 9.72744L13.1204 12.8991L15.2721 12.872H18.4861L17.2741 9.13652Z" fill="#F5841F" stroke="#F5841F" stroke-width="0.25" stroke-linecap="round" stroke-linejoin="round"/>
<path d="M5.9638 8.08383L2.34812 9.13652L1.14288 12.872H4.35003L6.50173 12.8991L4.87435 9.72744L5.9638 8.08383Z" fill="#F5841F" stroke="#F5841F" stroke-width="0.25" stroke-linecap="round" stroke-linejoin="round"/>
<path d="M10.8665 9.904L11.098 5.92401L12.1466 3.09189H7.47552L8.52413 5.92401L8.75564 9.904L8.84417 11.1537L8.85098 14.2439H10.7712L10.778 11.1537L10.8665 9.904Z" fill="#F5841F" stroke="#F5841F" stroke-width="0.25" stroke-linecap="round" stroke-linejoin="round"/>
</svg>
