<svg width="17" height="16" viewBox="0 0 17 16" fill="none" xmlns="http://www.w3.org/2000/svg">
<ellipse cx="7.73978" cy="8.28068" rx="7.65604" ry="7.65605" fill="url(#paint0_linear)"/>
<mask id="mask0" mask-type="alpha" maskUnits="userSpaceOnUse" x="0" y="0" width="16" height="16">
<ellipse cx="7.73978" cy="8.28068" rx="7.65604" ry="7.65605" fill="url(#paint1_linear)"/>
</mask>
<g mask="url(#mask0)">
<g filter="url(#filter0_f)">
<path d="M5.67071 7.92265C7.72397 10.4158 4.05599 14.5148 3.02619 15.1323C7.38163 17.9466 12.9053 12.7279 12.3798 6.7035C11.9803 2.12386 2.70202 4.31795 5.67071 7.92265Z" fill="#FF1F00"/>
</g>
<g filter="url(#filter1_f)">
<path d="M6.75039 9.31126C4.54114 6.95523 6.02183 2.77767 7.00981 2.09518C3.67766 1.6285 -1.38528 4.95703 -0.47363 10.9352C0.219386 15.4797 9.94463 12.7177 6.75039 9.31126Z" fill="#FF8A00"/>
</g>
</g>
<ellipse opacity="0.5" cx="7.73978" cy="8.28068" rx="7.65604" ry="7.65605" fill="url(#paint2_radial)"/>
<mask id="mask1" mask-type="alpha" maskUnits="userSpaceOnUse" x="0" y="0" width="16" height="16">
<circle cx="7.73978" cy="8.28068" r="7.65604" fill="url(#paint3_linear)"/>
</mask>
<g mask="url(#mask1)">
<g opacity="0.56" filter="url(#filter2_f)">
<path d="M6.34087 7.68473C4.9242 9.18634 2.55809 10.9746 1.05649 9.55794C-0.445117 8.14126 0.298957 5.03407 1.71564 3.53247C3.13231 2.03086 6.39747 1.00867 7.89907 2.42535C9.40068 3.84203 7.75755 6.18312 6.34087 7.68473Z" fill="white"/>
</g>
</g>
<path fill-rule="evenodd" clip-rule="evenodd" d="M6.24285 12.2214C8.93415 13.9276 12.499 13.129 14.2052 10.4377C15.9114 7.7464 15.1128 4.18154 12.4215 2.47537C9.73016 0.769192 6.1653 1.56779 4.45913 4.25909C2.75295 6.95039 3.55155 10.5152 6.24285 12.2214ZM5.68337 13.1039C8.86207 15.1191 13.0725 14.1759 15.0877 10.9972C17.1029 7.81848 16.1596 3.60802 12.9809 1.59285C9.80224 -0.422317 5.59178 0.520912 3.57661 3.69961C1.56144 6.87831 2.50467 11.0888 5.68337 13.1039Z" fill="#859EC3"/>
<path fill-rule="evenodd" clip-rule="evenodd" d="M13.8156 0L13.7771 1.55676L15.516 1.7336L14.7021 3.65757L13.7398 3.25049L14.0023 2.62997L12.7086 2.49841L12.7201 1.43539L11.1072 1.88753L10.8118 0.885236L13.8156 0Z" fill="#859EC3"/>
<defs>
<filter id="filter0_f" x="-46.9739" y="-45.884" width="109.388" height="111.8" filterUnits="userSpaceOnUse" color-interpolation-filters="sRGB">
<feFlood flood-opacity="0" result="BackgroundImageFix"/>
<feBlend mode="normal" in="SourceGraphic" in2="BackgroundImageFix" result="shape"/>
<feGaussianBlur stdDeviation="25" result="effect1_foregroundBlur"/>
</filter>
<filter id="filter1_f" x="-50.5815" y="-47.9481" width="107.974" height="111.265" filterUnits="userSpaceOnUse" color-interpolation-filters="sRGB">
<feFlood flood-opacity="0" result="BackgroundImageFix"/>
<feBlend mode="normal" in="SourceGraphic" in2="BackgroundImageFix" result="shape"/>
<feGaussianBlur stdDeviation="25" result="effect1_foregroundBlur"/>
</filter>
<filter id="filter2_f" x="-79.769" y="-78.251" width="168.264" height="168.325" filterUnits="userSpaceOnUse" color-interpolation-filters="sRGB">
<feFlood flood-opacity="0" result="BackgroundImageFix"/>
<feBlend mode="normal" in="SourceGraphic" in2="BackgroundImageFix" result="shape"/>
<feGaussianBlur stdDeviation="40" result="effect1_foregroundBlur"/>
</filter>
<linearGradient id="paint0_linear" x1="14.1373" y1="4.57876" x2="1.85198" y2="12.0139" gradientUnits="userSpaceOnUse">
<stop stop-color="#DB00FF"/>
<stop offset="0.463542" stop-color="#FF2574"/>
<stop offset="1" stop-color="#FF001F"/>
</linearGradient>
<linearGradient id="paint1_linear" x1="3.39385" y1="2.6062" x2="7.73979" y2="15.9367" gradientUnits="userSpaceOnUse">
<stop stop-color="#FC6434"/>
<stop offset="0.463542" stop-color="#F2236E"/>
<stop offset="1" stop-color="#E91C35"/>
</linearGradient>
<radialGradient id="paint2_radial" cx="0" cy="0" r="1" gradientUnits="userSpaceOnUse" gradientTransform="translate(1.8831 2.24246) rotate(47.7204) scale(16.2959)">
<stop stop-color="#FF0F00"/>
<stop offset="0.416667" stop-color="#FF00A8"/>
<stop offset="0.588542" stop-color="#FF008A"/>
<stop offset="1" stop-color="#D003AF"/>
</radialGradient>
<linearGradient id="paint3_linear" x1="3.39385" y1="2.6062" x2="7.73978" y2="15.9367" gradientUnits="userSpaceOnUse">
<stop stop-color="#FC6434"/>
<stop offset="0.463542" stop-color="#F2236E"/>
<stop offset="1" stop-color="#E91C35"/>
</linearGradient>
</defs>
</svg>
