<svg width="23" height="22" viewBox="0 0 23 22" fill="none" xmlns="http://www.w3.org/2000/svg">
<path d="M10.634 1.5C11.0189 0.833333 11.9811 0.833333 12.366 1.5L20.1603 15C20.5452 15.6667 20.064 16.5 19.2942 16.5H3.70577C2.93597 16.5 2.45485 15.6667 2.83975 15L10.634 1.5Z" fill="white"/>
<path d="M10.2973 5.491H12.7153L12.3123 11.432H10.7003L10.2973 5.491ZM11.5063 14.695C11.1509 14.695 10.8519 14.5823 10.6093 14.357C10.3753 14.123 10.2583 13.8413 10.2583 13.512C10.2583 13.1827 10.3753 12.9097 10.6093 12.693C10.8433 12.4677 11.1423 12.355 11.5063 12.355C11.8703 12.355 12.1693 12.4677 12.4033 12.693C12.6373 12.9097 12.7543 13.1827 12.7543 13.512C12.7543 13.8413 12.6329 14.123 12.3903 14.357C12.1563 14.5823 11.8616 14.695 11.5063 14.695Z" fill="#F86342"/>
</svg>
