<?xml version="1.0" standalone="no"?>
<!DOCTYPE svg PUBLIC "-//W3C//DTD SVG 20010904//EN"
 "http://www.w3.org/TR/2001/REC-SVG-20010904/DTD/svg10.dtd">
<svg version="1.0" xmlns="http://www.w3.org/2000/svg"
 width="300.000000pt" height="300.000000pt" viewBox="0 0 300.000000 300.000000"
 preserveAspectRatio="xMidYMid meet">
<metadata>
Created by potrace 1.14, written by Peter Selinger 2001-2017
</metadata>
<g transform="translate(0.000000,300.000000) scale(0.100000,-0.100000)"
fill="#000000" stroke="none">
<path d="M2063 2911 c-161 -48 -163 -48 -220 -35 -119 28 -492 17 -635 -20
-229 -58 -420 -184 -559 -368 -130 -174 -194 -347 -205 -563 -27 -496 317
-938 809 -1039 95 -20 290 -21 389 -2 93 18 221 65 304 111 81 45 196 137 253
201 41 45 151 205 151 218 0 3 -29 -24 -65 -59 -184 -181 -460 -276 -717 -248
-219 25 -377 102 -538 263 -158 158 -234 315 -260 534 -38 322 115 650 389
835 104 71 241 125 256 101 3 -6 -2 -7 -12 -4 -10 3 -1 -4 20 -16 20 -11 37
-23 37 -26 0 -3 -5 -2 -12 2 -7 4 -8 3 -4 -5 4 -6 11 -9 16 -6 5 3 11 1 15 -5
9 -15 48 -13 39 3 -6 10 -4 10 7 0 18 -18 5 -27 -71 -47 -231 -62 -434 -259
-516 -501 -21 -63 -28 -105 -32 -197 -6 -151 13 -238 80 -377 44 -92 61 -115
141 -195 105 -104 170 -145 294 -189 75 -26 106 -31 214 -35 106 -4 139 -1
215 18 373 93 626 456 576 827 -8 57 -8 91 -2 97 7 7 10 6 10 -3 0 -7 5 -9 10
-6 6 3 13 0 16 -8 3 -9 14 -13 27 -11 12 2 16 2 10 -2 -7 -3 -13 -9 -13 -13 0
-12 34 -9 43 3 5 6 6 1 2 -11 -5 -20 10 -41 22 -30 9 10 -28 160 -58 233 -17
40 -45 97 -64 129 -19 32 -35 63 -35 69 0 7 18 54 40 106 23 51 39 94 38 95
-2 2 -50 8 -107 14 -58 6 -107 14 -110 17 -3 3 -4 48 -3 100 3 74 1 94 -10 93
-7 0 -86 -22 -175 -48z"/>
<path d="M1943 620 c-137 -28 -236 -150 -236 -290 0 -164 129 -293 293 -293
211 0 354 217 270 410 -52 122 -197 199 -327 173z m135 -160 c130 -79 74 -280
-78 -280 -85 0 -150 65 -150 150 0 116 129 190 228 130z"/>
</g>
</svg>
